<?xml version="1.0" encoding="UTF-8"?>
<svg id="Layer_1" xmlns="http://www.w3.org/2000/svg" version="1.1" viewBox="0 0 384 384">
  <!-- Generator: Adobe Illustrator 29.7.1, SVG Export Plug-In . SVG Version: 2.1.1 Build 8)  -->
  <defs>
    <style>
      .st0 {
        fill: #fff;
      }
    </style>
  </defs>
  <path d="M106.5,0c2.51,1.62,5.65,2.33,7.8,4.57.94.98,4.2,6.82,4.2,7.8v16.88h147V12.38c0-.98,3.26-6.82,4.2-7.8,2.15-2.24,5.3-2.95,7.8-4.57h6c4.85,1.32,12,6.99,12,12.38v16.88c10.76-.06,21.91-.02,32.4,2.47,25.2,5.98,46.37,26.81,53.29,51.71,1.16,4.17,1.65,8.43,2.8,12.57v221.25c-1.32,4.74-1.79,9.68-3.21,14.41-7.21,24.06-28.45,43.98-52.72,50.03-3.85.96-7.78,1.25-11.57,2.31H67.5c-3.79-1.07-7.72-1.33-11.57-2.31-23.74-6.01-44.49-24.96-52.21-48.29-1.74-5.27-2.3-10.82-3.72-16.15V96c3.56-25.16,18.32-47.66,41.34-58.78,15-7.25,30.64-8.48,47.16-7.97V11.62c0-4.52,7.77-10.67,12-11.62h6ZM88.5,59.25h-16.12c-18.75,0-42.38,20.18-42.38,39.38v19.12h324v-19.12c0-19.22-23.67-39.38-42.38-39.38h-16.12v32.62c0,.33-1.94,4.47-2.37,5.13-5.75,8.86-19.51,8.86-25.26,0-.43-.66-2.37-4.8-2.37-5.13v-32.62H118.5v31.88c0,.57-1.62,4.59-2.09,5.41-5.19,9.11-19.21,9.57-25.24.92-.54-.77-2.67-5.08-2.67-5.58v-32.62ZM354,147.75H30v167.62c0,17.76,22.57,38.35,40.22,38.53l241.44.13c18.41.84,42.34-20.25,42.34-38.66v-167.62Z"/>
  <path class="st0" d="M277.5,0c-2.51,1.62-5.65,2.33-7.8,4.57-.94.98-4.2,6.82-4.2,7.8v16.88H118.5V12.38c0-.98-3.26-6.82-4.2-7.8-2.15-2.24-5.3-2.95-7.8-4.57h171Z"/>
  <path class="st0" d="M100.5,0c-4.23.96-12,7.11-12,11.62v17.62c-16.52-.52-32.16.72-47.16,7.97C18.32,48.34,3.56,70.84,0,96V0h100.5Z"/>
  <path class="st0" d="M283.5,0h100.5v96c-1.15-4.15-1.64-8.4-2.8-12.57-6.93-24.9-28.1-45.73-53.29-51.71-10.49-2.49-21.65-2.53-32.4-2.47V12.38c0-5.39-7.15-11.06-12-12.38Z"/>
  <path class="st0" d="M384,317.25v66.75h-67.5c3.79-1.06,7.72-1.35,11.57-2.31,24.27-6.05,45.51-25.97,52.72-50.03,1.42-4.73,1.89-9.67,3.21-14.41Z"/>
  <path class="st0" d="M67.5,384H0v-66.75c1.42,5.33,1.98,10.88,3.72,16.15,7.72,23.34,28.47,42.28,52.21,48.29,3.85.97,7.78,1.24,11.57,2.31Z"/>
  <path class="st0" d="M354,147.75v167.62c0,18.41-23.93,39.5-42.34,38.66l-241.44-.13c-17.65-.17-40.22-20.77-40.22-38.53v-167.62h324ZM86.05,192.18c-16.6,2.78-16.36,27.84,1.32,29.82,6.87.77,26.21.85,32.94-.07,17.04-2.32,17.11-27.94-.68-29.94-6.57-.74-27.32-.87-33.57.18ZM174.55,192.18c-16.9,2.84-16.15,27.86,1.32,29.82,6.87.77,26.21.85,32.94-.07,16.96-2.31,17.05-27.94-.68-29.94-6.56-.74-27.34-.87-33.57.18ZM263.05,192.18c-16.57,2.77-16.16,27.86,1.32,29.82,6.87.77,26.21.85,32.94-.07,17.26-2.35,17.49-28.28-1.4-29.96-7.05-.63-26.26-.89-32.85.21ZM86.05,280.68c-16.9,2.84-16.15,27.86,1.32,29.82,6.87.77,26.21.85,32.94-.07,16.98-2.31,17.25-27.92-.68-29.94-6.56-.74-27.34-.87-33.57.18ZM174.56,280.68c-16.81,2.64-16.23,27.85,1.32,29.82,6.87.77,26.21.85,32.94-.07,16.82-2.29,17.41-28.29-1.4-29.96-7.29-.65-25.94-.87-32.85.21ZM305.74,284.51c-1.97-1.83-6.41-3.71-9.11-4.01-6.57-.74-27.33-.86-33.57.18-15.88,2.66-16.21,26.28-.6,29.49,5.28,1.09,30.01,1.07,35.49.15,11.71-1.96,16.71-17.52,7.79-25.81Z"/>
  <path class="st0" d="M88.5,59.25v32.62c0,.5,2.14,4.81,2.67,5.58,6.03,8.66,20.04,8.2,25.24-.92.47-.82,2.09-4.84,2.09-5.41v-31.88h147v32.62c0,.33,1.94,4.47,2.37,5.13,5.75,8.86,19.51,8.86,25.26,0,.43-.66,2.37-4.8,2.37-5.13v-32.62h16.12c18.7,0,42.38,20.16,42.38,39.38v19.12H30v-19.12c0-19.2,23.62-39.38,42.38-39.38h16.12Z"/>
  <path d="M86.05,280.68c6.24-1.05,27.01-.92,33.57-.18,17.93,2.02,17.67,27.62.68,29.94-6.73.92-26.06.84-32.94.07-17.46-1.96-18.22-26.99-1.32-29.82Z"/>
  <path d="M305.74,284.51c8.91,8.29,3.92,23.85-7.79,25.81-5.48.92-30.21.93-35.49-.15-15.61-3.21-15.28-26.83.6-29.49,6.25-1.05,27.01-.92,33.57-.18,2.7.3,7.14,2.18,9.11,4.01Z"/>
  <path d="M263.05,192.18c6.59-1.1,25.8-.84,32.85-.21,18.9,1.69,18.66,27.61,1.4,29.96-6.72.92-26.07.84-32.94.07-17.48-1.97-17.89-27.05-1.32-29.82Z"/>
  <path d="M86.05,192.18c6.25-1.05,27-.92,33.57-.18,17.8,2,17.72,27.62.68,29.94-6.73.92-26.06.84-32.94.07-17.68-1.99-17.92-27.05-1.32-29.82Z"/>
  <path d="M174.55,192.18c6.24-1.05,27.01-.92,33.57-.18,17.73,1.99,17.64,27.63.68,29.94-6.73.92-26.06.84-32.94.07-17.46-1.96-18.22-26.99-1.32-29.82Z"/>
  <path d="M174.56,280.68c6.91-1.08,25.56-.86,32.85-.21,18.82,1.68,18.22,27.67,1.4,29.96-6.72.92-26.07.84-32.94.07-17.55-1.98-18.13-27.18-1.32-29.82Z"/>
</svg>