<?xml version="1.0" encoding="UTF-8"?>
<svg id="Layer_1" xmlns="http://www.w3.org/2000/svg" version="1.1" viewBox="0 0 512 512">
  <!-- Generator: Adobe Illustrator 29.7.1, SVG Export Plug-In . SVG Version: 2.1.1 Build 8)  -->
  <defs>
    <style>
      .st0 {
        fill: #fff;
      }
    </style>
  </defs>
  <path class="st0" d="M0,142V0h511.71v47c-2.86-23.86-25.68-44.5-49.43-46.03-33.24-2.15-49.12,24.64-70.42,44.67l74.52,75.29c1.21.23,1.64-.82,2.39-1.39,9.15-7.03,33.62-32.76,38.14-42.84,1.63-3.63,4.38-11.94,4.8-15.69v451h-135.92c30.89-8.06,49.16-31.76,51.02-63.45,3.26-55.5-2.52-114.2-.06-170.03-1.69-26.62-37.98-29.47-42.85-2.91l-.12,174.88c-.83,10.38-9,18.78-19.44,19.55H61.42c-7.57-.01-16.48-7.81-18-14.99l.03-311.08c3.09-7.66,9.46-14.01,18.01-14.97l176.66-.24c26.25-6.18,22.02-42.01-4.72-42.79-55.76,2.66-114.59-3.41-169.99-.01C30.18,87.99,6.13,109.38,0,142ZM368.43,69.07l-168.97,168.99c-8.52,25.62-11.13,53.23-17.44,79.56-1.49,8.73,4.56,14.74,13.25,13.26,26.31-6.31,53.9-8.92,79.51-17.45l168.53-168.44-74.88-75.92Z"/>
  <path d="M375.78,512H49.97c-26.39-7.33-45.5-27.8-49.97-55V142c6.13-32.62,30.18-54.01,63.42-56.05,55.4-3.4,114.23,2.67,169.99.01,26.74.79,30.97,36.62,4.72,42.79l-176.66.24c-8.56.96-14.93,7.32-18.01,14.97l-.03,311.08c1.52,7.17,10.43,14.97,18,14.99h302.91c10.44-.78,18.61-9.18,19.44-19.55l.12-174.88c4.87-26.56,41.16-23.71,42.85,2.91-2.46,55.84,3.32,114.53.06,170.03-1.86,31.69-20.13,55.39-51.02,63.45Z"/>
  <path d="M511.71,47c.4,3.35.38,10.63,0,14-.42,3.75-3.18,12.06-4.8,15.69-4.52,10.08-28.99,35.81-38.14,42.84-.75.57-1.18,1.63-2.39,1.39l-74.52-75.29C413.15,25.61,429.04-1.18,462.27.97c23.76,1.53,46.58,22.17,49.43,46.03Z"/>
  <path class="st0" d="M49.97,512H0v-55c4.48,27.2,23.58,47.67,49.97,55Z"/>
  <path d="M368.43,69.07l74.88,75.92-168.53,168.44c-25.61,8.53-53.2,11.14-79.51,17.45-8.69,1.49-14.74-4.53-13.25-13.26,6.31-26.33,8.92-53.94,17.44-79.56l168.97-168.99Z"/>
</svg>