<?xml version="1.0" encoding="UTF-8"?>
<svg id="Layer_1" xmlns="http://www.w3.org/2000/svg" version="1.1" viewBox="0 0 384 384">
  <!-- Generator: Adobe Illustrator 29.7.1, SVG Export Plug-In . SVG Version: 2.1.1 Build 8)  -->
  <defs>
    <style>
      .st0 {
        fill: #fff;
      }
    </style>
  </defs>
  <path class="st0" d="M0,189V0h384v189c-13.74-23.61-31.63-45.67-52.49-63.39-2.01-1.7-11.2-9.74-12.98-9.28-1.06.27-14.66,13.89-15.57,15.26-.51.77-1.13,1.64-.61,2.57.39.69,10.75,7.81,12.65,9.46,16.24,14.05,30.63,30.34,42.62,48.14-43.32,67.66-124.51,111.39-205.72,91.72l-19.91,19.51c11.19,3.23,22.63,5.95,34.23,7.4,90.86,11.41,172.98-38.67,217.77-115.39v189H0v-189c20.24,34.95,49.87,65.77,84.75,86.26.3,1.09-.29,1.25-.73,1.88-7.49,10.88-25.28,22.33-33.41,33.34-7.76,10.5,2.78,23.47,14.65,18.4L333.4,67.52c8.04-10.33-3.46-24.23-15.17-18.17l-41.81,40.61c-5.86-1.96-11.43-4.73-17.27-6.73-32.1-10.95-65.27-13.95-98.89-8.86C92.7,84.6,33.72,130.88,0,189ZM261.75,174c-1.3-.33-1.5.54-2.25,1.12-2.24,1.72-18.58,17.99-19.4,19.6-1.25,2.45-1.16,6.98-1.96,10.04-4,15.29-18.09,29.37-33.38,33.38-3.06.8-7.58.72-10.04,1.96-1.61.82-17.88,17.17-19.6,19.4-.58.75-1.45.95-1.12,2.25,52.53,13.98,101.68-35.26,87.74-87.74Z"/>
  <path d="M0,189c33.72-58.12,92.7-104.4,160.25-114.63,33.62-5.09,66.79-2.09,98.89,8.86,5.85,1.99,11.41,4.77,17.27,6.73l41.81-40.61c11.71-6.06,23.21,7.84,15.17,18.17L65.26,334.88c-11.87,5.06-22.41-7.9-14.65-18.4,8.13-11.01,25.92-22.46,33.41-33.34.43-.63,1.02-.79.73-1.88C49.87,260.77,20.24,229.95,0,195v-6ZM181.35,96.22c-64.07,3.76-120.26,43.36-154.98,95.54,19.05,29.71,45.87,54.11,76.15,72.14l30.85-30.27c-45.88-66.61,33.69-146.18,100.26-100.26l24.35-24.25c-23.5-10.28-51-14.41-76.64-12.9ZM186.6,144.22c-33.77,3.36-54.38,42.9-35.47,71.77l64.86-64.86c-8.39-5.79-19.31-7.91-29.39-6.9Z"/>
  <path d="M384,189v6c-44.79,76.73-126.91,126.81-217.77,115.39-11.6-1.46-23.04-4.17-34.23-7.4l19.91-19.51c81.21,19.66,162.4-24.06,205.72-91.72-12-17.8-26.38-34.09-42.62-48.14-1.91-1.65-12.26-8.78-12.65-9.46-.53-.93.09-1.8.61-2.57.91-1.37,14.51-14.99,15.57-15.26,1.78-.45,10.97,7.58,12.98,9.28,20.86,17.72,38.75,39.77,52.49,63.39Z"/>
  <path d="M261.75,174c13.93,52.48-35.21,101.72-87.74,87.74-.34-1.3.54-1.5,1.12-2.25,1.72-2.23,17.99-18.59,19.6-19.4,2.45-1.25,6.98-1.16,10.04-1.96,15.29-4,29.37-18.09,33.38-33.38.8-3.06.72-7.58,1.96-10.04.82-1.61,17.17-17.87,19.4-19.6.75-.58.95-1.45,2.25-1.12Z"/>
  <path class="st0" d="M181.35,96.22c25.64-1.5,53.14,2.62,76.64,12.9l-24.35,24.25c-66.58-45.92-146.14,33.65-100.26,100.26l-30.85,30.27c-30.28-18.03-57.1-42.43-76.15-72.14,34.72-52.18,90.91-91.78,154.98-95.54Z"/>
  <path class="st0" d="M186.6,144.22c10.08-1,21,1.12,29.39,6.9l-64.86,64.86c-18.91-28.87,1.7-68.4,35.47-71.77Z"/>
</svg>