<?xml version="1.0" encoding="UTF-8"?>
<svg id="Layer_1" xmlns="http://www.w3.org/2000/svg" version="1.1" viewBox="0 0 384 384">
  <!-- Generator: Adobe Illustrator 29.7.1, SVG Export Plug-In . SVG Version: 2.1.1 Build 8)  -->
  <defs>
    <style>
      .st0 {
        fill: #fff;
      }
    </style>
  </defs>
  <path class="st0" d="M384,0v384H0V0h384ZM44.84,48.96c-11.79,1.87-19.25,9.91-20.12,21.88-.59,8.16-.93,28.68,1.91,35.65,3.04,7.47,10.25,12.22,18.07,13.43l294.66.07c9.61-.88,19.28-8.56,20.57-18.43.93-7.12.85-26.43.07-33.69-1.12-10.32-10.7-18.13-20.72-19.03l-294.45.12ZM43.32,156.95c-7.32,1.53-13.84,6.31-16.69,13.31s-2.54,27.63-1.91,35.65c1.09,13.85,11.53,22.08,25.12,22.13h285.82c10.73.08,22.73-7.15,24.28-18.48.95-6.92.84-26.59.07-33.69-1.03-9.5-9.81-17.95-19.21-19.04l-297.47.11ZM42.57,264.95c-10.25,2-17.04,10.95-17.85,21.15-.63,8.02-.9,28.77,1.91,35.65,2.99,7.34,9.64,12.08,17.33,13.42l296.92.09c8.82-.96,17.97-9.54,19.04-18.46.8-6.73.87-32.08-1.06-37.77-2.55-7.49-9.01-12.36-16.54-14.21l-299.74.13Z"/>
  <path d="M44.84,48.96l294.45-.12c10.02.89,19.6,8.71,20.72,19.03.79,7.26.86,26.57-.07,33.69-1.29,9.87-10.96,17.55-20.57,18.43l-294.66-.07c-7.82-1.21-15.03-5.95-18.07-13.43-2.84-6.97-2.5-27.5-1.91-35.65.87-11.97,8.33-20.01,20.12-21.88Z"/>
  <path d="M43.32,156.95l297.47-.11c9.41,1.09,18.18,9.54,19.21,19.04.77,7.1.88,26.77-.07,33.69-1.55,11.33-13.55,18.56-24.28,18.47H49.84c-13.58-.05-24.02-8.28-25.12-22.13-.63-8.02-.9-28.77,1.91-35.65s9.37-11.78,16.69-13.31Z"/>
  <path d="M42.57,264.95l299.74-.13c7.53,1.85,14,6.71,16.54,14.21,1.93,5.69,1.87,31.04,1.06,37.77-1.07,8.93-10.22,17.51-19.04,18.46l-296.92-.09c-7.68-1.35-14.34-6.09-17.33-13.42-2.8-6.88-2.54-27.63-1.91-35.65.8-10.2,7.6-19.16,17.85-21.15Z"/>
</svg>