<?xml version="1.0" encoding="UTF-8"?>
<svg id="Layer_1" xmlns="http://www.w3.org/2000/svg" version="1.1" viewBox="0 0 491.52 491.52">
  <!-- Generator: Adobe Illustrator 29.7.1, SVG Export Plug-In . SVG Version: 2.1.1 Build 8)  -->
  <defs>
    <style>
      .st0 {
        fill: #fff;
      }
    </style>
  </defs>
  <path class="st0" d="M193.54,0l-2.31,1C62.65,9.82-28.16,135.59,9.56,261.11c38.82,129.17,192.84,184.76,307.5,113.92,7.04-4.35,13.42-9.79,20.54-13.67l128.11,125.79c10.39,7.12,21.98,2.49,25.81-9.04v13.41H0V0h193.54Z"/>
  <path class="st0" d="M220.37,0h271.15v471.4l-131.19-131.87c20.62-23.72,37.08-51.09,45.65-81.58C438.37,142.6,365.09,28.96,250.1,4.28l-29.73-4.28Z"/>
  <path d="M220.37,0l29.73,4.28c114.99,24.68,188.27,138.32,155.87,253.66-8.56,30.49-25.02,57.86-45.65,81.58l131.19,131.87v6.71c-3.82,11.53-15.42,16.16-25.81,9.04l-128.11-125.79c-7.13,3.87-13.5,9.32-20.54,13.67-114.66,70.84-268.68,15.25-307.5-113.92C-28.16,135.59,62.65,9.82,191.23,1l2.31-1h26.83ZM191.43,31.9C54,42.58-16.89,206.16,72.85,312.8c87.33,103.78,260.43,71.73,301.08-58.16,37.46-119.74-59.74-232.27-182.49-222.73Z"/>
  <path class="st0" d="M191.43,31.9c122.75-9.54,219.95,102.99,182.49,222.73-40.64,129.9-213.75,161.94-301.08,58.16C-16.89,206.16,54,42.58,191.43,31.9Z"/>
</svg>