<?xml version="1.0" encoding="UTF-8"?>
<svg id="Layer_1" xmlns="http://www.w3.org/2000/svg" version="1.1" viewBox="0 0 384 384">
  <!-- Generator: Adobe Illustrator 29.7.1, SVG Export Plug-In . SVG Version: 2.1.1 Build 8)  -->
  <defs>
    <style>
      .st0 {
        fill: #f6954a;
      }

      .st1 {
        fill: #fec92b;
      }
    </style>
  </defs>
  <path class="st1" d="M357.75,228h-97.12c-17.18,2.12-30.6,15.39-32.62,32.64v97.11c-4.08.86-8.17,2.01-12.36,2.28-51.46,3.31-106.44-2.53-158.27-.04-17.72-1.57-31.83-15.59-33.41-33.34V57.35c1.77-18.1,15.83-32.1,34.12-33.38h268.56c17.77,1.69,31.84,15.57,33.34,33.42-2.49,51.82,3.35,106.81.04,158.27-.27,4.19-1.42,8.28-2.28,12.34Z"/>
  <path class="st0" d="M357.75,228c-2.93,13.88-8.08,25.36-17.27,36.35-34.71,28.16-67.4,83.86-112.48,93.4v-97.11c2.03-17.25,15.46-30.52,32.63-32.63h97.12Z"/>
</svg>