<?xml version="1.0" encoding="UTF-8"?>
<svg id="Layer_1" xmlns="http://www.w3.org/2000/svg" version="1.1" viewBox="0 0 384 384">
  <!-- Generator: Adobe Illustrator 29.7.1, SVG Export Plug-In . SVG Version: 2.1.1 Build 8)  -->
  <defs>
    <style>
      .st0 {
        fill: #fff;
      }
    </style>
  </defs>
  <path d="M221.25,0c12.27,2.8,22.97,10.08,27.89,21.99.71,1.72,2.86,7.73,2.86,9.14v16.88h70.12c13.09,0,24.94,15.84,25.9,28.1.84,10.64,1.28,35.58-.09,45.71-1.28,9.4-10.66,11.15-18.69,10.19l-3.78,77.6c-2.19,45-2.24,91.89-5.94,136.56-1.67,20.19-11.1,33.58-31.53,37.84H96c-35.11-7.32-30.71-36.42-32.22-64.16-1.99-36.73-3.46-73.47-5.25-110.25l-3.78-77.6c-8.03.97-17.41-.79-18.69-10.19-1.38-10.13-.93-35.07-.09-45.71.96-12.25,12.82-28.1,25.9-28.1h70.12v-16.88c0-13.77,17.62-29.45,30.75-31.12h58.5ZM228,48v-14.62c0-3.95-6.31-8.78-10.19-9.31-15.82-2.15-36.57,1.2-52.85.27-3.3.25-8.96,6.06-8.96,9.04v14.62h72ZM324,108v-31.88c0-1.72-4.29-4.84-6.34-4.16H66.34c-2.04-.68-6.34,2.44-6.34,4.16v31.88h264ZM305.25,132H78.75l9.76,214.11c.71,7.96,3.91,13.16,12.33,13.92l186.08-.73c6.14-1.96,7.95-7.22,8.57-13.19l9.76-214.11Z"/>
  <path class="st0" d="M162.75,0c-13.13,1.67-30.75,17.35-30.75,31.12v16.88H61.88c-13.09,0-24.94,15.84-25.9,28.1-.84,10.64-1.28,35.58.09,45.71,1.28,9.39,10.66,11.15,18.69,10.19l3.78,77.6c1.79,36.78,3.26,73.52,5.25,110.25,1.51,27.74-2.89,56.83,32.22,64.16H0V0h162.75Z"/>
  <path class="st0" d="M221.25,0h162.75v384h-96c20.43-4.26,29.86-17.65,31.53-37.84,3.7-44.67,3.75-91.56,5.94-136.56l3.78-77.6c8.03.97,17.41-.79,18.69-10.19,1.38-10.13.93-35.07.09-45.71-.96-12.25-12.82-28.1-25.9-28.1h-70.12v-16.88c0-1.41-2.16-7.42-2.86-9.14-4.92-11.91-15.62-19.19-27.89-21.99Z"/>
  <path class="st0" d="M305.25,132l-9.76,214.11c-.62,5.96-2.43,11.23-8.57,13.19l-186.08.73c-8.43-.76-11.62-5.95-12.33-13.92l-9.76-214.11h226.5ZM129.55,156.18c-4.96.81-9.18,5.64-9.56,10.69l-.03,157.53c1.35,15.3,21.95,15.47,24.03.72l.03-157.53c-.46-7.73-6.84-12.65-14.48-11.41ZM189.55,156.18c-4.96.81-9.18,5.64-9.56,10.69l-.03,157.53c1.35,15.3,21.95,15.47,24.03.72l.03-157.53c-.46-7.73-6.84-12.65-14.48-11.41ZM249.55,156.18c-4.96.81-9.18,5.64-9.56,10.69l-.03,157.53c1.35,15.3,21.95,15.47,24.03.72l.03-157.53c-.46-7.73-6.84-12.65-14.48-11.41Z"/>
  <path class="st0" d="M324,108H60v-31.88c0-1.72,4.29-4.84,6.34-4.16h251.32c2.04-.68,6.34,2.44,6.34,4.16v31.88Z"/>
  <path class="st0" d="M228,48h-72v-14.62c0-2.98,5.66-8.79,8.96-9.04,16.28.93,37.03-2.42,52.85-.27,3.88.53,10.19,5.36,10.19,9.31v14.62Z"/>
  <path d="M129.55,156.18c7.64-1.24,14.01,3.68,14.48,11.41l-.03,157.53c-2.09,14.75-22.68,14.58-24.03-.72l.03-157.53c.38-5.05,4.59-9.89,9.56-10.69Z"/>
  <path d="M189.55,156.18c7.64-1.24,14.01,3.68,14.48,11.41l-.03,157.53c-2.09,14.75-22.68,14.58-24.03-.72l.03-157.53c.38-5.05,4.59-9.89,9.56-10.69Z"/>
  <path d="M249.55,156.18c7.64-1.24,14.01,3.68,14.48,11.41l-.03,157.53c-2.09,14.75-22.68,14.58-24.03-.72l.03-157.53c.38-5.05,4.59-9.89,9.56-10.69Z"/>
</svg>