<?xml version="1.0" encoding="UTF-8"?>
<svg id="Layer_1" xmlns="http://www.w3.org/2000/svg" version="1.1" viewBox="0 0 18.22 18.22">
  <!-- Generator: Adobe Illustrator 29.7.1, SVG Export Plug-In . SVG Version: 2.1.1 Build 8)  -->
  <defs>
    <style>
      .st0 {
        fill: #fff;
      }
    </style>
  </defs>
  <path d="M6.15,18.22c-1.02-.26-1.75-1.15-2.34-1.98-1.49-2.09-2.49-5.12-2.02-7.69s2.75-4.67,5.49-3.91c.85.24,1.51.79,2.42.52.62-.19,1.19-.5,1.85-.63,1.64-.34,3.56.25,4.47,1.71-.58.41-1.14.89-1.49,1.52-.68,1.25-.58,3,.2,4.18.43.64,1.1,1.1,1.78,1.46-.39,1.27-1.11,2.5-1.94,3.53s-1.56,1.52-2.9,1.17c-.59-.15-1.14-.48-1.77-.57-.9-.13-1.71.19-2.53.52l-.68.19h-.53Z"/>
  <path class="st0" d="M6.15,18.22H0V0h18.22v18.22H6.68l.68-.19c.82-.32,1.62-.65,2.53-.52.63.09,1.18.42,1.77.57,1.34.35,2.1-.16,2.9-1.17s1.55-2.26,1.94-3.53c-.67-.35-1.35-.82-1.78-1.46-.78-1.18-.89-2.93-.2-4.18.35-.64.91-1.11,1.49-1.52-.91-1.45-2.83-2.04-4.47-1.71-.66.14-1.23.45-1.85.63-.91.27-1.56-.28-2.42-.52-2.74-.76-5.01,1.31-5.49,3.91s.53,5.6,2.02,7.69c.59.82,1.31,1.72,2.34,1.98ZM12.72.04c-2.08.2-3.81,2.07-3.66,4.19h.59c1.31,0,3.07-2.07,3.07-3.32V.04Z"/>
  <path d="M12.72.04v.87c0,1.25-1.76,3.32-3.07,3.32h-.59c-.15-2.13,1.58-4,3.66-4.19Z"/>
</svg>