<?xml version="1.0" encoding="UTF-8"?>
<svg id="Layer_1" xmlns="http://www.w3.org/2000/svg" version="1.1" viewBox="0 0 384 384">
  <!-- Generator: Adobe Illustrator 29.7.1, SVG Export Plug-In . SVG Version: 2.1.1 Build 8)  -->
  <defs>
    <style>
      .st0 {
        fill: #1877f1;
      }

      .st1 {
        fill: #fefefe;
      }

      .st2 {
        fill: #fdfefe;
      }
    </style>
  </defs>
  <path class="st0" d="M207.12,0l33.3,6.05c71.06,18.4,126.58,77.66,140.23,149.93,1.32,6.99,1.67,14.12,3.36,21.02v30.75c-1.86,7.69-2.4,15.62-3.98,23.39-15.75,77.41-79.94,138.46-157.91,150.61v-134.25h44.97l8.24-55.5h-53.21v-40.12c0-13.06,13.71-25.88,26.61-25.88h28.86v-47.25c-16.7-2.96-33.65-4.17-50.62-3.78-22.87,1.71-43.76,12.25-55.19,32.53-14.48,25.7-8.31,56.27-9.61,84.5h-48.72v55.5h48.72v134.25C86.43,369.92,23.41,311.86,5.56,237.32c-2.34-9.78-3.21-19.77-5.3-29.57.59-10.25-.8-21.36,0-31.5C7.49,84.32,85.2,6.79,177.14,0h29.98Z"/>
  <path class="st1" d="M.25,207.75c2.09,9.8,2.96,19.79,5.3,29.57,17.85,74.54,80.87,132.6,156.59,144.43v-134.25h-48.72v-55.5h48.72c1.31-28.23-4.86-58.8,9.61-84.5,11.42-20.28,32.32-30.81,55.19-32.53,16.97-.39,33.93.82,50.62,3.78v47.25h-28.86c-12.89,0-26.61,12.81-26.61,25.88v40.12h53.21l-8.24,55.5h-44.97v134.25c77.97-12.15,142.16-73.21,157.91-150.61,1.58-7.77,2.12-15.7,3.98-23.39v176.25H.25v-176.25Z"/>
  <path class="st2" d="M177.14,0C85.2,6.79,7.49,84.32.25,176.25V0h176.88Z"/>
  <path class="st2" d="M207.12,0h176.88v177c-1.68-6.89-2.04-14.03-3.36-21.02C366.99,83.72,311.48,24.45,240.42,6.05L207.12,0Z"/>
</svg>