<?xml version="1.0" encoding="UTF-8"?>
<svg id="Layer_1" xmlns="http://www.w3.org/2000/svg" version="1.1" viewBox="0 0 384 384">
  <!-- Generator: Adobe Illustrator 29.7.1, SVG Export Plug-In . SVG Version: 2.1.1 Build 8)  -->
  <defs>
    <style>
      .st0 {
        fill: #d83f22;
      }

      .st1 {
        fill: #fe4b26;
      }

      .st2 {
        fill: #fdfefd;
      }

      .st3 {
        fill: #177ee5;
      }

      .st4 {
        fill: #fefefd;
      }

      .st5 {
        fill: #10993e;
      }

      .st6 {
        fill: #fed401;
      }

      .st7 {
        fill: #fefefe;
      }

      .st8 {
        fill: #13b247;
      }

      .st9 {
        fill: #fdfefe;
      }
    </style>
  </defs>
  <path class="st7" d="M206.98,0h176.79v180.7c-.24-2.96-1.42-9.44-2.29-12.33-1.97-6.57-5.62-9.35-12.41-10.07-53.29.41-106.88-1.3-160,.87-4.4,1.42-8.12,5.25-8.76,9.98,1.01,16.91-1.57,35.78-.1,52.45.39,4.45,2.3,8,6.24,10.25.82.47,4.83,2.09,5.4,2.09h88.77c-8.87,23.76-28.16,46.63-50.19,59.23-16.6,9.49-39.28,15.59-58.43,15.75-40.79.32-80.92-23.4-101.13-58.48-20.77-36.05-20.78-80.9,0-116.97s60.36-58.93,101.13-58.48c25.28.28,46.42,7.95,67.21,21.58,9.27,6.08,13.03,13.35,24.57,3.93,8.34-6.8,27.83-26.16,34.45-34.5,10.42-13.13-1.84-20.67-11.68-28.06-22.93-17.22-50.31-29.08-78.45-34.69l-21.11-3.24Z"/>
  <path class="st3" d="M383.77,180.7c.72,8.92-.53,18.72,0,27.74-1.53,5.39-1.55,11.14-2.46,16.65-9.65,57.86-43.63,103.4-93.42,132.55l-37.45-64.48c22.03-12.6,41.32-35.47,50.19-59.23h-88.77c-.57,0-4.58-1.62-5.4-2.09-3.94-2.25-5.85-5.8-6.24-10.25-1.47-16.67,1.11-35.54.1-52.45.64-4.73,4.36-8.55,8.76-9.98,53.12-2.17,106.71-.46,160-.87,6.79.72,10.45,3.49,12.41,10.07.86,2.89,2.05,9.37,2.29,12.33Z"/>
  <path class="st6" d="M90.87,133.46c-20.78,36.07-20.77,80.92,0,116.97l-64.42,37.49c-10.6-18.28-17.98-35.98-22.24-56.84-1.59-7.76-2.22-15.67-3.98-23.38.54-10.03-.73-20.8,0-30.74,2.06-28.03,12.26-56.9,26.22-80.98l64.42,37.49Z"/>
  <path class="st1" d="M192,0v74.98c-40.77-.45-80.97,23.48-101.13,58.48L26.45,95.97C52.82,50.51,94.93,18.36,146.15,5.47l31.62-5.47h14.23Z"/>
  <path class="st8" d="M192,308.91v74.98h-15.73l-30.12-5.47c-51.16-12.88-93.35-45.06-119.7-90.51l64.42-37.49c20.21,35.08,60.34,58.8,101.13,58.48Z"/>
  <path class="st0" d="M206.98,0l21.11,3.24c28.14,5.61,55.53,17.48,78.45,34.69,9.85,7.39,22.11,14.93,11.68,28.06-6.62,8.34-26.11,27.7-34.45,34.5-11.54,9.41-15.3,2.15-24.57-3.93-20.79-13.63-41.93-21.3-67.21-21.58V0h14.98Z"/>
  <path class="st4" d="M177.77,0l-31.62,5.47C94.93,18.36,52.82,50.51,26.45,95.97,12.49,120.05,2.29,148.91.23,176.95V0h177.54Z"/>
  <path class="st2" d="M26.45,287.92c26.35,45.44,68.54,77.62,119.7,90.51l30.12,5.47H.23v-176.2c1.76,7.71,2.39,15.63,3.98,23.38,4.26,20.86,11.64,38.56,22.24,56.84Z"/>
  <path class="st9" d="M383.77,208.44v175.45h-176.79c28.63-2.04,56.33-11.85,80.9-26.24,49.79-29.15,83.77-74.69,93.42-132.55.92-5.51.94-11.26,2.46-16.65Z"/>
  <path class="st5" d="M250.43,293.16l37.45,64.48c-24.57,14.39-52.27,24.2-80.9,26.24-4.9.35-10.06-.26-14.98,0v-74.98c19.15-.15,41.83-6.25,58.43-15.75Z"/>
</svg>