<?xml version="1.0" encoding="UTF-8"?>
<svg id="Layer_1" xmlns="http://www.w3.org/2000/svg" version="1.1" viewBox="0 0 921.6 921.6">
  <!-- Generator: Adobe Illustrator 29.7.1, SVG Export Plug-In . SVG Version: 2.1.1 Build 8)  -->
  <defs>
    <style>
      .st0 {
        fill: #fff;
      }
    </style>
  </defs>
  <polygon class="st0" points="10.78 921.6 0 921.6 0 0 921.6 0 921.6 921.6 909.02 921.6 546.36 392.2 880.28 1.8 802.13 1.8 511.1 339.5 277.56 1.8 10.78 1.8 360.5 512.89 10.78 921.6"/>
  <path d="M10.78,921.6l349.72-408.71L10.78,1.8h266.78l233.55,337.71L802.13,1.8h78.15l-333.92,390.4,362.66,529.4h-267.68l-243.45-355.73L89.82,921.6H10.78ZM240.73,61.08h-122.16l561.4,803.03h119.47l-7.51-13.15L240.73,61.08Z"/>
  <polygon class="st0" points="89.82 921.6 397.9 565.87 641.35 921.6 89.82 921.6"/>
  <polygon class="st0" points="240.73 61.08 791.93 850.97 799.44 864.11 679.97 864.11 118.57 61.08 240.73 61.08"/>
</svg>