<?xml version="1.0" encoding="UTF-8"?>
<svg id="Layer_1" xmlns="http://www.w3.org/2000/svg" version="1.1" viewBox="0 0 409.6 409.6">
  <!-- Generator: Adobe Illustrator 29.7.1, SVG Export Plug-In . SVG Version: 2.1.1 Build 8)  -->
  <defs>
    <style>
      .st0 {
        fill: #fff;
      }
    </style>
  </defs>
  <path class="st0" d="M42.23,408.49H.03V.11h408.47v42.99c-3.67-23.03-21.39-40.49-44.96-42.22-31.63-2.33-66.07,1.83-98,0-24.84,2.05-43.37,20.91-44.99,45.77-2.18,33.48.87,70.49,1.07,104.09,4.37,21.13,22.41,36.5,43.92,38.08,33.65,2.48,71.75-.98,105.56-1.2,18.98-3.85,35.31-21.66,37.4-41.03v116.23c-2.11-19.6-18.77-37.56-38.06-41.16-33.75.17-72.15-3.76-105.65-1.02-23.07,1.88-41.98,20.41-44.1,43.48-2.95,32.12,1.91,68.35,0,100.9,1.83,21.71,20.32,41.15,42.1,43.49h-115.46c22.42-3.65,39.74-21.16,41.44-44.15,2.37-32.14-1.86-67.12,0-99.57-2-24.21-20.68-42.61-44.98-44.19-32.11-2.09-66.46,1.67-98.8,0-23.67,1.74-42.45,20.52-44.19,44.18-2.37,32.14,1.86,67.12,0,99.57,1.19,21.69,19.7,41.82,41.44,44.15ZM42.86,1.14C20.24,3.44,2.4,22.49.79,45.05c2.01,32.56-2.58,68.12.04,100.32,1.86,22.78,20.6,41.53,43.4,43.39,32.44,2.64,68.3-1.94,101.1,0,23-2.07,41.32-20.38,43.4-43.39-1.94-32.79,2.65-68.65,0-101.07-1.85-22.63-20.17-41.04-42.69-43.3-33.15,2.05-70.5-3.19-103.18.13Z"/>
  <path d="M147.33,408.49c-33.42-2.63-72.33,3.51-105.1,0-21.74-2.33-40.24-22.46-41.44-44.15,1.86-32.45-2.37-67.43,0-99.57,1.74-23.66,20.53-42.44,44.19-44.18,32.35,1.66,66.7-2.1,98.8,0,24.3,1.58,42.98,19.98,44.98,44.19-1.86,32.45,2.37,67.43,0,99.57-1.69,22.99-19.01,40.5-41.44,44.15ZM45.2,252.65c-6.8,1.56-11.64,6.78-12.53,13.74,2.07,30.8-2.75,65.19-.03,95.56.74,8.23,6.43,13.98,14.73,14.73,30.15,2.7,64.25-2.11,94.82,0,8.19-.66,13.99-6.51,14.73-14.73,2.7-30.14-2.11-64.23,0-94.8-.5-7.74-6.27-13.73-13.96-14.7l-97.75.19Z"/>
  <path d="M408.5,43.09c-2.59,32.9,3.46,71.23,0,103.49-2.08,19.37-18.42,37.18-37.4,41.03-33.81.22-71.91,3.67-105.56,1.2-21.51-1.58-39.55-16.95-43.92-38.08-.2-33.59-3.25-70.6-1.07-104.09,1.62-24.86,20.15-43.72,44.99-45.77,31.93,1.83,66.37-2.33,98,0,23.56,1.74,41.29,19.19,44.96,42.22ZM265.78,32.95c-7.07,1.04-12.82,7.41-13.34,14.53,1.94,30.36-2.62,63.99-.04,93.95.83,9.58,6.92,14.83,16.32,15.53,29.81,2.22,62.33-1.75,92.43,0,9.58-.83,14.83-6.92,15.53-16.31,2.22-29.8-1.75-62.31,0-92.41-.54-8.86-6.79-14.77-15.53-15.52-30.35-2.61-64.62,1.84-95.37.24Z"/>
  <path d="M408.5,262.81v103.49c-1.93,9.36-4.91,17.68-11.13,25.09-8.06,9.61-18.84,14.82-31.07,17.1-32.9-2.59-71.24,3.46-103.51,0-21.78-2.34-40.27-21.78-42.1-43.49,1.91-32.55-2.95-68.77,0-100.9,2.12-23.06,21.04-41.59,44.1-43.48,33.5-2.74,71.9,1.19,105.65,1.02,19.28,3.59,35.95,21.56,38.06,41.16ZM265.78,252.67c-7.07,1.04-12.82,7.41-13.34,14.53,1.94,30.36-2.62,63.99-.04,93.95.83,9.58,6.92,14.83,16.32,15.53,29.81,2.22,62.33-1.75,92.43,0,9.58-.83,14.83-6.92,15.53-16.31,2.22-29.8-1.75-62.31,0-92.41-.54-8.86-6.79-14.77-15.53-15.52-30.35-2.61-64.62,1.84-95.37.24Z"/>
  <path class="st0" d="M408.5,366.29v42.19h-42.2c12.23-2.28,23.01-7.48,31.07-17.1,6.22-7.42,9.2-15.73,11.13-25.09Z"/>
  <path d="M42.86,1.14c32.67-3.32,70.02,1.92,103.18-.13,22.52,2.26,40.84,20.67,42.69,43.3,2.65,32.43-1.94,68.28,0,101.07-2.07,23.01-20.39,41.31-43.4,43.39-32.8-1.94-68.66,2.64-101.1,0-22.8-1.86-41.54-20.6-43.4-43.39-2.63-32.2,1.96-67.76-.04-100.32C2.4,22.49,20.24,3.44,42.86,1.14ZM45.2,32.93c-6.8,1.56-11.64,6.78-12.53,13.74,2.07,30.8-2.75,65.19-.03,95.56.74,8.23,6.43,13.98,14.73,14.73,30.15,2.7,64.25-2.11,94.82,0,8.19-.66,13.99-6.51,14.73-14.73,2.7-30.14-2.11-64.23,0-94.8-.5-7.74-6.27-13.73-13.96-14.7l-97.75.19Z"/>
  <path class="st0" d="M45.2,252.65l97.75-.19c7.69.97,13.46,6.96,13.96,14.7-2.11,30.56,2.7,64.65,0,94.8-.74,8.22-6.54,14.07-14.73,14.73-30.57-2.11-64.67,2.7-94.82,0-8.3-.74-13.99-6.5-14.73-14.73-2.72-30.37,2.1-64.76.03-95.56.89-6.96,5.73-12.18,12.53-13.74Z"/>
  <path class="st0" d="M265.78,32.95c30.75,1.6,65.02-2.85,95.37-.24,8.73.75,14.99,6.66,15.53,15.52-1.75,30.09,2.23,62.6,0,92.41-.7,9.4-5.95,15.49-15.53,16.31-30.1-1.75-62.62,2.23-92.43,0-9.4-.7-15.49-5.95-16.32-15.53-2.58-29.97,1.98-63.6.04-93.95.52-7.12,6.27-13.49,13.34-14.53Z"/>
  <path class="st0" d="M265.78,252.67c30.75,1.6,65.02-2.85,95.37-.24,8.73.75,14.99,6.66,15.53,15.52-1.75,30.09,2.23,62.6,0,92.41-.7,9.4-5.95,15.49-15.53,16.31-30.1-1.75-62.62,2.23-92.43,0-9.4-.7-15.49-5.95-16.32-15.53-2.58-29.97,1.98-63.6.04-93.95.52-7.12,6.27-13.49,13.34-14.53Z"/>
  <path class="st0" d="M45.2,32.93l97.75-.19c7.69.97,13.46,6.96,13.96,14.7-2.11,30.56,2.7,64.65,0,94.8-.74,8.22-6.54,14.07-14.73,14.73-30.57-2.11-64.67,2.7-94.82,0-8.3-.74-13.99-6.5-14.73-14.73-2.72-30.37,2.1-64.76.03-95.56.89-6.96,5.73-12.18,12.53-13.74Z"/>
</svg>