<?xml version="1.0" encoding="UTF-8"?>
<svg id="Layer_1" xmlns="http://www.w3.org/2000/svg" version="1.1" viewBox="0 0 1408 768">
  <!-- Generator: Adobe Illustrator 29.7.1, SVG Export Plug-In . SVG Version: 2.1.1 Build 8)  -->
  <defs>
    <style>
      .st0 {
        fill: #4ac2f5;
      }

      .st1 {
        fill: #0a77e6;
      }

      .st2 {
        fill: #51c3f3;
      }

      .st3 {
        fill: #297bca;
      }

      .st4 {
        fill: #20aaf4;
      }

      .st5 {
        fill: #4fc4f4;
      }
    </style>
  </defs>
  <path class="st1" d="M474.64,291.71c.61-.35,5.79-2.23,5.99-2,2.39,2.72-2.98,5.2-3.67,6.31-4.37,7.03-7.72,18.16-10.66,25.36-3.55,8.69-7.4,19.72-9.64,29.01-.67,2.77.61,6.83-.05,9.62-.19.81-1.81.27-2.06,2.12-1.18,9.02-1.18,41.12,0,50.13.24,1.85,1.87,1.31,2.06,2.12.6,2.56-.56,6.09.05,8.63,2.55,10.66,7.5,22.9,11.64,33.01,18.42,45.03,55.42,79.98,100.01,98.01,9.56,3.87,14.98,5.33,25.65,7.68,1.36.3,10.84,3.89,12.11,4.06,4.85.63,12.47-1.09,16.88-.06.81.19.27,1.82,2.12,2.06,3.51.46,14.6.45,18.13,0,1.91-.24.95-1.92,2.87-2.16,12.25-1.54,23.11-1.18,34.88-3.94,4.68-1.1,15.88-6.07,21.36-8.31,9.4-3.84,21.26-9.93,30-15.99,31.95-22.14,56.09-54,69.98-88,4.6-11.25,8.53-27.9,10.39-41.12.49-3.48-.74-21.66-.05-22.55,1.33-1.7,5.59,1.29,4.91,2.5l3.04,6.39c.03.07.06.13.09.2,8.95,22.74,16.11,46.25,16.96,70.9-1.02,2.67-8.17,18.38-7.92,19.4.39,1.63,24.08,19.14,26.61,20.49,3.22,1.72,5.17-1.37,8.33-2.36,22.88-7.2,36.91,6.93,53.89,19.06l58.09,44.41c-31.4-10.44-64.78,21.61-61.88,53.38.54,5.88,4.95,16.2,5.98,21.66-2.82-.6-7.6-5.1-10.01-6.63-24.51-15.61-47.72-37.61-72.13-53.87-10.47-11.77-13.67-26.1-10.13-41.36-3.76-1.21-21.82-17.1-23.33-17.09-.78,0-8.45,10.28-9.98,11.92-134.85,144.11-374.33,53.57-380.5-141.52-.21-6.56-.23-17.21.99-23.49,3.37-17.31,43.56-69.1,59-78Z"/>
  <path class="st4" d="M741.64,313.71c-38.28,50.57-76.13,101.49-114.49,152.01-14.15,14.14-30.48,12.97-44.55-.5-24.28-23.24-46.7-52.47-70.2-76.77-14.92-24.14,9.29-52.91,35.59-41.59,10.9,4.69,37.67,36.35,47.16,46.84,2.44,2.7,4.99,6.77,7.41,9.38.79.85.69.94,2.06.61,29.1-37.12,64.45-75.16,94.02-111.98.97-.96-1.26.39,0,0,2.55-.79,9.54-.49,12.38-.88,39.52-5.35,43.18-1.06,30.62,22.88Z"/>
  <path class="st5" d="M415.64,369.71c5.42-68.66,43.78-131.22,101.48-168.02,70.48-44.95,163.63-46.74,233.42.51l-24.9,30.05c-.42.38-.9.45-1.44.47-2.11.06-17.18-8.61-20.87-10.18-81.06-34.58-151.74-6.42-208.67,53.17-7.46,4.2-14.13,9.79-20,16-15.44,8.9-55.63,60.69-59,78Z"/>
  <path class="st2" d="M697.31,292.51l131.6-161.56h0l-42.26-10.22,105.99-44.01-13,115.99c-2.34.51-1.61-.3-2.24-1.28-2.63-4.09-15.36-33.67-17.26-33.69-39.4,52.06-82.17,107.99-121.57,160.04-4.26-12.3-14.75-25.95-27.55-26.94-2.85-.22-11.17.89-13.71,1.67Z"/>
  <path class="st2" d="M837.64,465.71c-.86-24.68-8.03-48.22-17-71-2.93-7.43-6.15-15-10-22,0-.67.01-1.33,0-2-.03-1.92.33-10.57,0-11.01-.12-.16-1.44.1-2,0-3.1-25.36-13.76-49.07-26.87-70.67l24-33.18c1.78-.71,2.71.21,3.89,1.33,3.93,3.73,12.49,19.04,15.49,24.51,31.23,57.09,35.74,123.26,12.49,184.01Z"/>
  <path class="st0" d="M976.54,566.76c8.4,3.4,14.28,11.7,18.1,20.04,19.07,42.01-28.56,86.31-66.06,61.21-6.34-4.12-10.01-6.76-11.3-14.5-3.16-13.08-4.37-23.4,1.48-36.55,9.14-21.46,34.18-38.22,57.61-30.28l.18.07Z"/>
  <path class="st2" d="M809.97,369.71c.03-4.05-.91-6.53-1.33-10,.56.09,1.9-.19,2,0,1.56,2.83,3.31,8.87,3.03,11.18-.35,2.95-3.03,1.82-3.03,1.82,0,0-.45-4-.67-3Z"/>
  <path class="st3" d="M492.56,276.93c-.2.21,6.35-5.61,1.06,1.26-.69.89-7.22,12.03-8.32,7.74-.04-.17,6.6-5.38,5.87-4.24-12.27,19.2-21.75,33.75-28.05,57-45.01,166.04,148.97,295.4,282.72,184.96,47.61-39.31,64.77-93.81,64.12-154.77,3.85,7,8.66,20.73,11.58,28.15l-4.56-5.65c.68-1.21-3-7.36-4.34-5.66-.7.89.54,19.07.05,22.55-1.86,13.22-5.79,29.87-10.39,41.12-13.89,34-38.03,65.86-69.98,88-8.75,6.06-20.6,12.15-30,15.99-5.48,2.24-16.68,7.22-21.36,8.31-11.77,2.76-22.63,2.4-34.88,3.94-1.91.24-.95,1.92-2.87,2.16-3.54.45-14.62.46-18.13,0-1.85-.24-1.31-1.87-2.12-2.06-4.41-1.03-12.03.69-16.88.06-1.27-.17-10.75-3.76-12.11-4.06-10.67-2.35-16.08-3.82-25.65-7.68-44.59-18.03-81.59-52.98-100.01-98.01-4.14-10.12-9.09-22.36-11.64-33.01-.61-2.54.55-6.07-.05-8.63-.19-.81-1.81-.27-2.06-2.12-1.18-9.02-1.18-41.12,0-50.13.24-1.85,1.86-1.31,2.06-2.12.66-2.79-.62-6.85.05-9.62,2.24-9.29,6.09-20.32,9.64-29.01,2.94-7.2,6.29-18.33,10.66-25.36.69-1.11,6.06-3.6,3.67-6.31-.21-.24-5.32,5.73-15.32,9.5,6.19-5.97,19.79-18.09,27.25-22.29Z"/>
</svg>